An impressionable and vulnerable Arabic man gets thrust into a hellish prison, and ironically discovers greater opportunities for success than he ever possessed outside of the bars, in this violent melodrama from French succès d\'estime Jacques Audiard (The Beat That My Heart Skipped). Tahar Rahim  stars as Malik El Djebena, a petty criminal incarcerated for six years. Once inside and subjected to all of the standard brutalities that most prisoners endure, he is quickly educated in the \"ways\" of the prison, an institution torn violently between gangs of Corsicans and Arabs. The head Corsican thug, César Luciani (Niels Arestrup), offers Malik an ultimatum: either he rubs out an Arab inmate named Reyeb (Hichem Yacoubi), or he himself dies. Not only does Malik succeed with the hit, he earns the begrudging respect of the other prisoners, and -- after securing several days\' release for good behavior -- uses off-time to forge a deeper and more multi-layered network of criminal ties than he ever dreamed possible. But as his own power and confidence grow, they threaten to outstrip César\'s own insistence on submission and obedience at all costs. 
   General
      Complete name : Un Prophete.avi
      Format : AVI
      Format/Info : Audio Video Interleave
      Format profile : OpenDML
      File size : 2.59 GiB
      Duration : 2h 35mn
      Overall bit rate : 2 393 Kbps
      Writing application : VirtualDubMod 1.5.10.2 (build 2542/release)
      Writing library : VirtualDubMod build 2542/release
   Video #0
      ID : 0
      Format : MPEG-4 Visual
      Format profile : AdvancedSimple@L5
      Format settings, BVOP : Yes
      Format settings, QPel : No
      Format settings, GMC : No warppoints
      Format settings, Matrix : Default (H.263)
      Muxing mode : Packed bitstream
      Codec ID : XVID
      Codec ID/Hint : XviD
      Duration : 2h 35mn
      Bit rate : 1 935 Kbps
      Width : 720 pixels
      Height : 384 pixels
      Display aspect ratio : 1.875
      Frame rate : 24.000 fps
      Resolution : 24 bits
      Colorimetry : 4:2:0
      Scan type : Progressive
      Bits/(Pixel*Frame) : 0.292
      Stream size : 2.10 GiB (81%)
      Writing library : XviD 1.2.1 (UTC 2008-12-04)
   Audio #1
      ID : 1
      Format : AC-3
      Format/Info : Audio Coding 3
      Codec ID : 2000
      Duration : 2h 35mn
      Bit rate mode : Constant
      Bit rate : 448 Kbps
      Channel(s) : 6 channels
      Channel positions : Front: L C R, Surround: L R, LFE
      Sampling rate : 48.0 KHz
      Stream size : 497 MiB (19%)
      Alignment : Split accross interleaves
      Interleave, duration : 64 ms (1.54 video frames)
      Interleave, preload duration : 500 ms
 
http://www.imdb.com/title/tt1235166/

French and Corsican audio; English, French, Spanish and Portuguese subtitles

Un.Prophete.2009.480p.BRRip.AC3.Xvid-SOuVLaAKI